# xmcd
#
# Track frame offsets: 
#        154
#        12793
#        23434
#        36924
#        48206
#        63918
#        86366
#        97842
#        113129
#        124425
#        134648
#
# Disc length: 1993 seconds
#
# Revision: 0
# Processed by: cddbd v1.5PL3 Copyright (c) Steve Scherf et al.
# Submitted via: ExactAudioCopy v0.95a5
#
DISCID=8307c70b
DTITLE=Palms Bluegrass Band - Live Vol.-1
DYEAR=1900
DGENRE=Bluegrass
TTITLE0=Will You Be Loving Another Man
TTITLE1=Pain In My Heart
TTITLE2=Uncle Pen
TTITLE3=Little Girl Of Mine In Tennessee
TTITLE4=Gravel Yard
TTITLE5=Murder On Music Row
TTITLE6=Black Mountain Rag
TTITLE7=Waltz Of The Angels
TTITLE8=How Mountain Girls Can Love
TTITLE9=No Mother Or Dad
TTITLE10=I'm A Stranger Here
EXTD=
EXTT0=
EXTT1=
EXTT2=
EXTT3=
EXTT4=
EXTT5=
EXTT6=
EXTT7=
EXTT8=
EXTT9=
EXTT10=
PLAYORDER=
